<svg id="Группа_1" data-name="Группа 1" xmlns="http://www.w3.org/2000/svg" width="122" height="30.875" viewBox="0 0 122 30.875">
  <metadata><?xpacket begin="﻿" id="W5M0MpCehiHzreSzNTczkc9d"?>
<x:xmpmeta xmlns:x="adobe:ns:meta/" x:xmptk="Adobe XMP Core 5.6-c138 79.159824, 2016/09/14-01:09:01        ">
   <rdf:RDF xmlns:rdf="http://www.w3.org/1999/02/22-rdf-syntax-ns#">
      <rdf:Description rdf:about=""/>
   </rdf:RDF>
</x:xmpmeta>
                                                                                                    
                                                                                                    
                                                                                                    
                                                                                                    
                                                                                                    
                                                                                                    
                                                                                                    
                                                                                                    
                                                                                                    
                                                                                                    
                                                                                                    
                                                                                                    
                                                                                                    
                                                                                                    
                                                                                                    
                                                                                                    
                                                                                                    
                                                                                                    
                                                                                                    
                                                                                                    
                           
<?xpacket end="w"?></metadata>
<defs>
    <style>
      .cls-1, .cls-2 {
        fill: #111;
        fill-rule: evenodd;
      }

      .cls-2 {
        opacity: 0.7;
      }
    </style>
  </defs>
  <path id="elmanov" class="cls-1" d="M23.17,33.26V28.74h7.02v-1.7H23.17v-4.3h7.88V21H21.17V35H31.33V33.26H23.17ZM37.57,35h9.58V33.26H39.57V21h-2V35Zm29.78,0L67.33,21H65.69l-5.76,9.84L54.09,21H52.45V35h1.92V24.86l5.06,8.44h0.92l5.06-8.5L65.43,35h1.92Zm17.66,0h2.1L80.75,21H78.77L72.43,35h2.06l1.54-3.5h7.44Zm-8.28-5.1,3.02-6.86,3.02,6.86H76.73Zm25.5-8.9V31.44L93.83,21H92.19V35h2V24.56L102.59,35h1.64V21h-2Zm15.52,14.16a7.788,7.788,0,0,0,3.8-.93,6.825,6.825,0,0,0,2.66-2.56,7.5,7.5,0,0,0,0-7.34,6.827,6.827,0,0,0-2.66-2.56,8.269,8.269,0,0,0-7.62,0,6.867,6.867,0,0,0-2.67,2.57,7.39,7.39,0,0,0,0,7.32,6.865,6.865,0,0,0,2.67,2.57,7.824,7.824,0,0,0,3.82.93h0Zm0-1.78a5.607,5.607,0,0,1-2.79-.7A5.088,5.088,0,0,1,113,30.75a5.681,5.681,0,0,1,0-5.5,5.09,5.09,0,0,1,1.96-1.93,5.61,5.61,0,0,1,2.79-.7,5.5,5.5,0,0,1,2.77.7,5.142,5.142,0,0,1,1.94,1.93,5.681,5.681,0,0,1,0,5.5,5.14,5.14,0,0,1-1.94,1.93,5.5,5.5,0,0,1-2.77.7h0ZM140.95,21l-5.08,11.5L130.83,21h-2.16l6.16,14h1.98l6.14-14h-2Z" transform="translate(-20.938 -20.844)"/>
  <path id="Репетитор_по_математике" data-name="Репетитор по математике" class="cls-2" d="M23.3,44.02H20.94v6.039H21.8V48.23H23.3a2.8,2.8,0,0,0,1.846-.561,2.109,2.109,0,0,0,0-3.089A2.8,2.8,0,0,0,23.3,44.02h0ZM23.27,47.479H21.8V44.77H23.27a1.947,1.947,0,0,1,1.251.349,1.387,1.387,0,0,1,0,2.01,1.947,1.947,0,0,1-1.251.349h0ZM31.207,47.8a2.538,2.538,0,0,0-.289-1.225,2.092,2.092,0,0,0-.8-0.832,2.288,2.288,0,0,0-1.169-.3,2.334,2.334,0,0,0-1.178.3,2.131,2.131,0,0,0-.82.832,2.425,2.425,0,0,0-.3,1.2,2.387,2.387,0,0,0,.306,1.208,2.121,2.121,0,0,0,.867.833,2.911,2.911,0,0,0,2.316.108,2,2,0,0,0,.772-0.552l-0.457-.535a1.7,1.7,0,0,1-1.32.552,1.731,1.731,0,0,1-1.126-.367,1.435,1.435,0,0,1-.53-0.971h3.71a2.374,2.374,0,0,0,.017-0.25h0Zm-2.26-1.656a1.422,1.422,0,0,1,1,.367,1.471,1.471,0,0,1,.47.945H27.48a1.46,1.46,0,0,1,.47-0.949,1.431,1.431,0,0,1,1-.362h0Zm3.761-.656v4.572h0.828V46.211h2.579v3.848h0.828V45.486H32.708ZM42.9,47.8a2.536,2.536,0,0,0-.289-1.225,2.091,2.091,0,0,0-.8-0.832,2.288,2.288,0,0,0-1.169-.3,2.335,2.335,0,0,0-1.178.3,2.132,2.132,0,0,0-.819.832,2.424,2.424,0,0,0-.3,1.2,2.387,2.387,0,0,0,.306,1.208,2.121,2.121,0,0,0,.867.833,2.912,2.912,0,0,0,2.316.108,2,2,0,0,0,.772-0.552l-0.457-.535a1.7,1.7,0,0,1-1.32.552,1.731,1.731,0,0,1-1.126-.367,1.436,1.436,0,0,1-.531-0.971h3.71A2.4,2.4,0,0,0,42.9,47.8h0Zm-2.26-1.656a1.422,1.422,0,0,1,1,.367,1.471,1.471,0,0,1,.47.945H39.169a1.461,1.461,0,0,1,.47-0.949,1.431,1.431,0,0,1,1-.362h0Zm6.979-.656H43.44v0.725h1.674v3.848h0.828V46.211h1.674V45.486Zm1.061,4.572h0.759l2.8-3.33v3.33h0.828V45.486H52.308l-2.8,3.33v-3.33H48.676v4.572Zm9.611-4.572H54.111v0.725h1.674v3.848h0.828V46.211h1.674V45.486Zm2.821,4.624a2.455,2.455,0,0,0,1.221-.3,2.2,2.2,0,0,0,.845-0.833,2.518,2.518,0,0,0,0-2.407,2.168,2.168,0,0,0-.845-0.828,2.661,2.661,0,0,0-2.446,0,2.159,2.159,0,0,0-.85.828,2.518,2.518,0,0,0,0,2.407,2.19,2.19,0,0,0,.85.833,2.478,2.478,0,0,0,1.225.3h0Zm0-.725a1.543,1.543,0,0,1-.789-0.2,1.459,1.459,0,0,1-.552-0.569,1.847,1.847,0,0,1,0-1.682,1.43,1.43,0,0,1,.552-0.565,1.669,1.669,0,0,1,1.579,0,1.4,1.4,0,0,1,.548.565,1.881,1.881,0,0,1,0,1.682,1.43,1.43,0,0,1-.548.569,1.543,1.543,0,0,1-.789.2h0Zm6.212-3.943a2.205,2.205,0,0,0-.932.194,1.758,1.758,0,0,0-.7.574V45.486H64.9v6.246h0.828V49.368a1.873,1.873,0,0,0,.695.552,2.118,2.118,0,0,0,.9.19,2.4,2.4,0,0,0,1.191-.293,2.1,2.1,0,0,0,.824-0.824,2.643,2.643,0,0,0,0-2.437,2.11,2.11,0,0,0-.824-0.82,2.4,2.4,0,0,0-1.19-.293h0ZM67.25,49.386a1.55,1.55,0,0,1-.785-0.2,1.42,1.42,0,0,1-.552-0.569,1.737,1.737,0,0,1-.2-0.841,1.685,1.685,0,0,1,.2-0.837,1.469,1.469,0,0,1,.552-0.565,1.528,1.528,0,0,1,.781-0.2,1.57,1.57,0,0,1,.789.2,1.431,1.431,0,0,1,.552.565,1.847,1.847,0,0,1,0,1.682,1.461,1.461,0,0,1-.552.569,1.544,1.544,0,0,1-.789.2h0Zm6.332-3.9v4.572h0.828V46.211H76.99v3.848h0.828V45.486H73.583ZM81.6,50.11a2.455,2.455,0,0,0,1.221-.3,2.2,2.2,0,0,0,.845-0.833,2.518,2.518,0,0,0,0-2.407,2.168,2.168,0,0,0-.845-0.828,2.661,2.661,0,0,0-2.446,0,2.159,2.159,0,0,0-.85.828,2.518,2.518,0,0,0,0,2.407,2.189,2.189,0,0,0,.85.833,2.478,2.478,0,0,0,1.225.3h0Zm0-.725a1.544,1.544,0,0,1-.789-0.2,1.46,1.46,0,0,1-.552-0.569,1.847,1.847,0,0,1,0-1.682,1.43,1.43,0,0,1,.552-0.565,1.669,1.669,0,0,1,1.579,0,1.4,1.4,0,0,1,.548.565,1.881,1.881,0,0,1,0,1.682,1.431,1.431,0,0,1-.548.569,1.543,1.543,0,0,1-.789.2h0Zm10.818-3.9-1.846,3.088-1.794-3.088H87.921v4.572H88.68V46.711l1.691,2.83h0.362l1.708-2.821v3.339h0.751V45.486H92.415Zm4.236-.043a3.542,3.542,0,0,0-1.044.151,2.5,2.5,0,0,0-.846.436l0.345,0.621a2.048,2.048,0,0,1,.656-0.358,2.422,2.422,0,0,1,.794-0.134,1.31,1.31,0,0,1,.914.285,1.056,1.056,0,0,1,.311.82v0.164H96.47a2.169,2.169,0,0,0-1.4.367,1.275,1.275,0,0,0,.022,1.946,1.9,1.9,0,0,0,1.229.371,2.255,2.255,0,0,0,.91-0.168,1.31,1.31,0,0,0,.591-0.487v0.6h0.785V47.3a1.8,1.8,0,0,0-.5-1.389,2.068,2.068,0,0,0-1.454-.466h0Zm-0.19,4.029a1.222,1.222,0,0,1-.742-0.2,0.64,0.64,0,0,1-.267-0.544q0-.707,1.053-0.707h1.277v0.638a1.21,1.21,0,0,1-.5.6,1.538,1.538,0,0,1-.82.211h0Zm7.264-3.986H99.55v0.725h1.673v3.848h0.829V46.211h1.673V45.486Zm5,2.312a2.533,2.533,0,0,0-.289-1.225,2.087,2.087,0,0,0-.8-0.832,2.288,2.288,0,0,0-1.169-.3,2.337,2.337,0,0,0-1.178.3,2.128,2.128,0,0,0-.819.832,2.419,2.419,0,0,0-.3,1.2,2.389,2.389,0,0,0,.306,1.208,2.132,2.132,0,0,0,.867.833,2.913,2.913,0,0,0,2.317.108,2.005,2.005,0,0,0,.772-0.552l-0.457-.535a1.7,1.7,0,0,1-1.32.552,1.731,1.731,0,0,1-1.126-.367,1.437,1.437,0,0,1-.531-0.971h3.71a2.233,2.233,0,0,0,.017-0.25h0Zm-2.26-1.656a1.42,1.42,0,0,1,1,.367,1.469,1.469,0,0,1,.471.945h-2.934a1.459,1.459,0,0,1,.471-0.949,1.429,1.429,0,0,1,1-.362h0Zm8.256-.656-1.846,3.088-1.8-3.088h-0.854v4.572h0.76V46.711l1.69,2.83h0.363l1.708-2.821v3.339h0.751V45.486h-0.777Zm4.236-.043a3.545,3.545,0,0,0-1.044.151,2.494,2.494,0,0,0-.845.436l0.345,0.621a2.04,2.04,0,0,1,.655-0.358,2.426,2.426,0,0,1,.794-0.134,1.308,1.308,0,0,1,.914.285,1.053,1.053,0,0,1,.311.82v0.164h-1.311a2.169,2.169,0,0,0-1.4.367,1.2,1.2,0,0,0-.44.971,1.19,1.19,0,0,0,.462.975,1.9,1.9,0,0,0,1.229.371,2.253,2.253,0,0,0,.91-0.168,1.309,1.309,0,0,0,.591-0.487v0.6h0.785V47.3a1.8,1.8,0,0,0-.5-1.389,2.069,2.069,0,0,0-1.454-.466h0Zm-0.19,4.029a1.222,1.222,0,0,1-.742-0.2,0.64,0.64,0,0,1-.267-0.544q0-.707,1.052-0.707h1.277v0.638a1.206,1.206,0,0,1-.5.6,1.54,1.54,0,0,1-.82.211h0Zm7.264-3.986h-4.175v0.725h1.673v3.848h0.828V46.211h1.674V45.486Zm1.061,4.572h0.759l2.8-3.33v3.33h0.828V45.486h-0.751l-2.8,3.33v-3.33h-0.828v4.572Zm9.516,0h0.975l-1.855-2.373,1.734-2.2h-0.889l-1.484,1.932h-0.966V45.486H133.29v4.572h0.828V48.126h0.949Zm6.039-2.26a2.544,2.544,0,0,0-.289-1.225,2.1,2.1,0,0,0-.8-0.832,2.288,2.288,0,0,0-1.169-.3,2.333,2.333,0,0,0-1.177.3,2.137,2.137,0,0,0-.82.832,2.429,2.429,0,0,0-.3,1.2,2.389,2.389,0,0,0,.306,1.208,2.12,2.12,0,0,0,.867.833,2.911,2.911,0,0,0,2.316.108,2,2,0,0,0,.772-0.552l-0.457-.535a1.694,1.694,0,0,1-1.32.552,1.733,1.733,0,0,1-1.126-.367,1.436,1.436,0,0,1-.53-0.971h3.709a2.274,2.274,0,0,0,.018-0.25h0Zm-2.261-1.656a1.424,1.424,0,0,1,1,.367,1.473,1.473,0,0,1,.47.945h-2.933a1.463,1.463,0,0,1,.47-0.949,1.431,1.431,0,0,1,1-.362h0Z" transform="translate(-20.938 -20.844)"/>
</svg>
