<svg width="16" height="23" viewBox="0 0 16 23" fill="none" xmlns="http://www.w3.org/2000/svg">
<rect width="16" height="22.721" fill="black" fill-opacity="0"/>
<rect width="16" height="22.721" fill="black" fill-opacity="0"/>
<rect width="16" height="22.721" fill="black" fill-opacity="0"/>
<path d="M8 0C3.58872 0 0 3.64512 0 8.12537V14.5958C0 19.0761 3.58872 22.721 8 22.721C12.411 22.721 16 19.0871 16 14.6207V8.12537C16 3.64512 12.411 0 8 0ZM14.4953 14.6207C14.4953 18.2575 11.5817 21.2163 8 21.2163C4.41856 21.2163 1.50473 18.2463 1.50473 14.5956V8.12537C1.50473 4.4747 4.41856 1.50469 8 1.50469C11.5817 1.50469 14.4953 4.4747 14.4953 8.12537V14.6207Z" fill="#0C0C0C"/>
<rect width="1.50473" height="4.13797" fill="black" fill-opacity="0" transform="translate(7.24756 6.21942)"/>
<rect width="1.50473" height="4.13797" fill="black" fill-opacity="0" transform="translate(7.24756 6.21942)"/>
<path d="M7.99992 6.21942C7.58438 6.21942 7.24756 6.55624 7.24756 6.97179V9.60502C7.24756 10.0206 7.58438 10.3574 7.99992 10.3574C8.41547 10.3574 8.75229 10.0206 8.75229 9.60502V6.97179C8.75229 6.55624 8.41547 6.21942 7.99992 6.21942Z" fill="#0C0C0C"/>
</svg>
